External Loads File
version=1
nRows=69
nColumns=13
Range=5.000000e-03-10 seconds
endheader
time 	forceRightX 	forceRightY 	forceRightZ 	pointRightX 	pointRightY 	pointRightZ 	forceLeftX 	forceLeftY 	forceLeftZ 	pointLeftX 	pointLeftY 	pointLeftZ 		
2.505000 19.338119 -93.350624 -0.000000 0.195921 0.195074 -0.115897 -14.492095 548.658987 -0.000000 0.369598 0.471339 -0.369033
2.510000 15.055162 -97.334406 -0.000000 0.192583 0.197728 -0.115956 -15.118600 565.587553 -0.000000 0.372546 0.468572 -0.369194
2.515000 10.790567 -103.420049 -0.000000 0.189233 0.200490 -0.116070 -16.154355 581.943891 -0.000000 0.375297 0.465655 -0.368970
2.520000 6.315551 -111.795463 -0.000000 0.186043 0.203596 -0.116079 -17.185840 597.881641 -0.000000 0.378154 0.462604 -0.368990
2.525000 1.513887 -122.415090 -0.000000 0.182918 0.206643 -0.116170 -18.601642 613.524235 -0.000000 0.381050 0.459447 -0.369116
2.530000 -3.670146 -135.024994 -0.000000 0.179897 0.209927 -0.116255 -20.936057 628.957545 -0.000000 0.383638 0.456444 -0.369039
2.535000 -9.784907 -149.139100 -0.000000 0.176992 0.213220 -0.116355 -22.265686 644.348148 -0.000000 0.386584 0.452701 -0.368883
2.540000 -16.431082 -164.103434 -0.000000 0.174189 0.216664 -0.116334 -24.765327 659.728662 -0.000000 0.389225 0.449402 -0.368961
2.545000 -24.096356 -179.082497 -0.000000 0.171483 0.220121 -0.116387 -26.412345 675.254620 -0.000000 0.391814 0.445324 -0.369024
2.550000 -32.416158 -193.335576 -0.000000 0.168856 0.223590 -0.116301 -28.321585 690.931917 -0.000000 0.394429 0.441446 -0.369138
2.555000 -41.253297 -206.258865 -0.000000 0.166357 0.227096 -0.116286 -30.275228 706.769675 -0.000000 0.396837 0.437404 -0.369265
2.560000 -50.418272 -217.447290 -0.000000 0.164150 0.230662 -0.116363 -32.085189 722.734704 -0.000000 0.399335 0.433268 -0.369259
2.565000 -59.691148 -226.691915 -0.000000 0.161938 0.234290 -0.116263 -33.620345 738.763430 -0.000000 0.401586 0.428968 -0.369359
2.570000 -69.041061 -233.898731 -0.000000 0.159774 0.237995 -0.116198 -34.120599 754.790358 -0.000000 0.403845 0.424310 -0.369510
2.575000 -77.826500 -239.284760 -0.000000 0.157668 0.241738 -0.116231 -34.817407 770.630105 -0.000000 0.405996 0.419795 -0.369618
2.580000 -85.948859 -243.019657 -0.000000 0.155692 0.245594 -0.116275 -35.286359 786.169088 -0.000000 0.408064 0.415213 -0.369727
2.585000 -93.410373 -245.279048 -0.000000 0.153692 0.249630 -0.116224 -34.941928 801.306365 -0.000000 0.410138 0.410487 -0.369846
2.590000 -99.695328 -246.462836 -0.000000 0.152010 0.253688 -0.115952 -35.078078 815.846321 -0.000000 0.412087 0.405721 -0.369906
2.595000 -105.047091 -246.688114 -0.000000 0.150232 0.257925 -0.115942 -34.750154 829.679443 -0.000000 0.413896 0.400851 -0.370055
2.600000 -109.233376 -246.223230 -0.000000 0.148504 0.262288 -0.115967 -34.818976 842.628073 -0.000000 0.415785 0.396182 -0.370030
2.605000 -112.625204 -244.994764 -0.000000 0.146791 0.266800 -0.116009 -34.216130 854.621913 -0.000000 0.417545 0.391206 -0.370064
2.610000 -115.088160 -243.010291 -0.000000 0.145226 0.271521 -0.116028 -33.534243 865.556928 -0.000000 0.419201 0.386197 -0.370119
2.615000 -116.555863 -240.083562 -0.000000 0.143792 0.276262 -0.115915 -33.009892 875.384526 -0.000000 0.420755 0.381111 -0.370062
2.620000 -117.057641 -235.869872 -0.000000 0.142407 0.281041 -0.115901 -32.354653 884.116963 -0.000000 0.422305 0.375966 -0.369977
2.625000 -116.470098 -230.111893 -0.000000 0.141089 0.285931 -0.115993 -31.658764 891.807464 -0.000000 0.423588 0.370799 -0.369918
2.630000 -114.864767 -222.572324 -0.000000 0.139908 0.291088 -0.116200 -30.093024 898.616050 -0.000000 0.424718 0.365549 -0.369935
2.635000 -111.894454 -213.429418 -0.000000 0.138797 0.296215 -0.116315 -28.453662 904.712820 -0.000000 0.425727 0.360276 -0.369949
2.640000 -107.561547 -202.976460 -0.000000 0.137840 0.301279 -0.116424 -26.566212 910.352620 -0.000000 0.426527 0.354895 -0.370012
2.645000 -102.291818 -191.567841 -0.000000 0.137024 0.306704 -0.116575 -23.020511 915.861614 -0.000000 0.427222 0.349443 -0.369831
2.650000 -95.945846 -179.992420 -0.000000 0.136318 0.311867 -0.116626 -19.691488 921.485279 -0.000000 0.427866 0.343975 -0.369768
2.655000 -89.249426 -168.545853 -0.000000 0.135771 0.317349 -0.116769 -14.740463 927.526391 -0.000000 0.428215 0.338471 -0.369745
2.660000 -82.402078 -157.701733 -0.000000 0.135389 0.322773 -0.116866 -8.990591 934.150445 -0.000000 0.428400 0.332864 -0.369701
2.665000 -75.765239 -147.746870 -0.000000 0.135174 0.328292 -0.117015 -2.317587 941.451966 -0.000000 0.428242 0.327271 -0.369470
2.670000 -69.601526 -138.933216 -0.000000 0.135170 0.333842 -0.117151 5.105055 949.439101 -0.000000 0.428109 0.321681 -0.369685
2.675000 -64.167260 -131.415263 -0.000000 0.135387 0.339440 -0.117231 13.449034 958.074690 -0.000000 0.427863 0.316021 -0.369857
2.680000 -59.468718 -125.342850 -0.000000 0.135797 0.344928 -0.117302 21.599876 967.324349 -0.000000 0.427461 0.310431 -0.370044
2.685000 -55.712106 -120.634176 -0.000000 0.136430 0.350520 -0.117358 30.473041 977.108031 -0.000000 0.426905 0.304796 -0.369144
2.690000 -52.847376 -117.209931 -0.000000 0.137183 0.356162 -0.117383 39.578976 987.337064 -0.000000 0.426151 0.299154 -0.368917
2.695000 -50.777991 -114.915141 -0.000000 0.138176 0.361727 -0.117437 48.328179 997.895866 -0.000000 0.425193 0.293534 -0.368804
2.700000 -49.480548 -113.492920 -0.000000 0.139205 0.367326 -0.117358 56.953285 1008.597897 -0.000000 0.424045 0.287876 -0.368610
2.705000 -48.777583 -112.711479 -0.000000 0.140588 0.372691 -0.117341 64.460876 1019.316579 -0.000000 0.422814 0.282208 -0.368501
2.710000 -48.687303 -112.254883 -0.000000 0.142177 0.378272 -0.117372 71.667461 1029.852738 -0.000000 0.421415 0.276648 -0.368327
2.715000 -49.083287 -111.908812 -0.000000 0.143953 0.383896 -0.117378 78.145024 1040.145589 -0.000000 0.419831 0.271107 -0.368195
2.720000 -49.804117 -111.524252 -0.000000 0.145886 0.389321 -0.117392 83.128479 1050.258503 -0.000000 0.418109 0.265527 -0.368078
2.725000 -50.850797 -110.939221 -0.000000 0.148412 0.394713 -0.117364 87.289710 1060.228863 -0.000000 0.416196 0.260086 -0.367940
2.730000 -52.085698 -110.129513 -0.000000 0.150635 0.400096 -0.117543 89.829764 1070.293879 -0.000000 0.414123 0.254649 -0.367775
2.735000 -53.502930 -109.090528 -0.000000 0.153189 0.405311 -0.117532 91.033376 1080.694690 -0.000000 0.411896 0.249313 -0.367591
2.740000 -55.109372 -107.872508 -0.000000 0.155931 0.410487 -0.117549 91.344617 1091.725699 -0.000000 0.409448 0.244128 -0.367428
2.745000 -56.956242 -106.549009 -0.000000 0.158962 0.415657 -0.117554 91.895955 1103.663178 -0.000000 0.406848 0.238896 -0.367231
2.750000 -58.848880 -105.369933 -0.000000 0.162036 0.420621 -0.117602 91.485970 1117.007272 -0.000000 0.404079 0.233778 -0.367133
2.755000 -60.909909 -104.442617 -0.000000 0.165479 0.425620 -0.117653 92.310404 1131.992649 -0.000000 0.401050 0.228701 -0.366931
2.760000 -62.962363 -104.012653 -0.000000 0.169003 0.430523 -0.117565 93.390668 1149.073932 -0.000000 0.397925 0.223656 -0.366723
2.765000 -65.035259 -104.127096 -0.000000 0.172646 0.435457 -0.117599 95.630481 1168.427535 -0.000000 0.394550 0.218745 -0.366552
2.770000 -67.190025 -104.724414 -0.000000 0.176653 0.440219 -0.117495 99.797562 1190.072707 -0.000000 0.390970 0.213831 -0.366346
2.775000 -69.305906 -105.822658 -0.000000 0.180553 0.444780 -0.117595 104.260685 1214.047437 -0.000000 0.387228 0.209146 -0.366163
2.780000 -71.647703 -107.200454 -0.000000 0.184731 0.449315 -0.117652 111.799490 1239.807898 -0.000000 0.383230 0.204446 -0.366009
2.785000 -74.175651 -108.857219 -0.000000 0.189153 0.453686 -0.117613 121.748285 1266.878343 -0.000000 0.379047 0.199860 -0.365925
2.790000 -76.894242 -110.776798 -0.000000 0.193626 0.458026 -0.117640 133.860384 1294.574927 -0.000000 0.374668 0.195450 -0.365834
2.795000 -79.820717 -112.912547 -0.000000 0.198234 0.462180 -0.117727 148.182610 1322.060907 -0.000000 0.370124 0.191125 -0.365724
2.800000 -82.934114 -115.194259 -0.000000 0.203013 0.466194 -0.117706 164.638442 1348.413191 -0.000000 0.365446 0.186904 -0.365723
2.805000 -86.164507 -117.549606 -0.000000 0.207983 0.470083 -0.117784 182.648332 1372.703121 -0.000000 0.360668 0.182921 -0.365724
2.810000 -89.460616 -119.860361 -0.000000 0.213034 0.473784 -0.117820 201.849292 1393.952358 -0.000000 0.355733 0.178989 -0.365695
2.815000 -92.645489 -122.019787 -0.000000 0.218141 0.477317 -0.117922 220.814985 1411.321545 -0.000000 0.350793 0.175238 -0.365714
2.820000 -95.622799 -123.780940 -0.000000 0.223315 0.480811 -0.117983 239.417482 1423.745912 -0.000000 0.345797 0.171675 -0.365807
2.825000 -98.096138 -125.075854 -0.000000 0.228417 0.483765 -0.118229 254.963193 1430.539338 -0.000000 0.340787 0.168746 -0.365859
2.830000 -100.321882 -125.503762 -0.000000 0.233734 0.486704 -0.118166 270.574308 1429.995335 -0.000000 0.335731 0.165625 -0.365930
2.835000 -102.189037 -125.034903 -0.000000 0.239202 0.489586 -0.118165 284.834154 1421.271211 -0.000000 0.330662 0.162722 -0.366071
2.840000 -103.778638 -123.570903 -0.000000 0.245158 0.492273 -0.117859 298.226965 1403.408632 -0.000000 0.325648 0.160098 -0.366131
2.845000 -104.642213 -121.530405 -0.000000 0.250198 0.494712 -0.118245 304.890305 1377.170884 -0.000000 0.320692 0.157711 -0.366205
